#!OML:ASF H:\Terrain\Patient Classification 1\Terrain2\Thursday\justin.ASF
:FULLY-SPECIFIED
:DEGREES
1794
root 6.61462 17.7779 -0.180958 539.154 -98.9586 -180.816
lowerback 18.7711 -1.54579 -3.42364
upperback 7.00525 -2.90188 3.61674
thorax -2.58188 -1.72111 6.41278
lowerneck -14.5299 -1.42938 -7.47919
upperneck 33.194 -2.92591 5.66061
head 13.8869 -1.78876 3.0414
rclavicle -5.80451e-014 4.85035e-014
rhumerus -32.1829 -12.7772 -76.419
rradius 37.5802
rwrist -13.3481
rhand -22.6307 13.6603
rfingers 7.12502
rthumb 3.79973 -16.2855
lclavicle -5.80451e-014 4.85035e-014
lhumerus -15.5305 -12.1746 84.9858
lradius 51.8502
lwrist 9.90729
lhand -20.5818 21.993
lfingers 7.12502
lthumb 5.77807 51.8942
rfemur -81.9743 -13.2964 32.9384
rtibia 101.593
rfoot -13.8324 0.683258
rtoes 15.1722
lfemur 12.8768 -2.72274 -20.5988
ltibia 18.4313
lfoot -1.09304 -13.7835
ltoes 4.02148
1795
root 6.48113 17.8253 -0.1767 539.382 -98.9662 -180.34
lowerback 18.5412 -1.61804 -3.24947
upperback 6.79203 -2.94028 3.64247
thorax -2.6944 -1.72155 6.34183
lowerneck -14.571 -1.50978 -7.65283
upperneck 33.0653 -3.02656 5.81609
head 13.8542 -1.82752 3.11663
rclavicle 1.96797e-014 -1.03368e-014
rhumerus -32.2847 -12.9575 -76.3685
rradius 37.3035
rwrist -13.5809
rhand -23.0741 13.6315
rfingers 7.12502
rthumb 3.37156 -16.3216
lclavicle 1.96797e-014 -1.03368e-014
lhumerus -15.9446 -11.54 85.2816
lradius 51.4504
lwrist 10.0908
lhand -20.3538 22.2858
lfingers 7.12502
lthumb 5.99825 52.1809
rfemur -81.4987 -13.0698 32.9797
rtibia 101.194
rfoot -15.6596 -0.209138
rtoes 14.9357
lfemur 13.0704 -3.28455 -20.7693
ltibia 17.2704
lfoot 0.417822 -13.2496
ltoes 5.95964
1796
root 6.34448 17.8912 -0.170528 539.069 -98.9302 -179.39
lowerback 18.2611 -1.76838 -3.15396
upperback 6.69389 -3.10515 3.65837
thorax -2.63662 -1.79766 6.32191
lowerneck -14.6395 -1.521 -7.95412
upperneck 32.8043 -3.00299 6.07475
head 13.762 -1.81003 3.27274
rclavicle -7.95139e-015 1.27222e-014
rhumerus -32.1126 -13.0399 -76.4492
rradius 36.8631
rwrist -13.428
rhand -23.5516 13.1699
rfingers 7.12502
rthumb 2.91042 -16.7899
lclavicle -7.95139e-015 1.27222e-014
lhumerus -16.2862 -10.472 85.5426
lradius 50.9143
lwrist 10.0881
lhand -20.0315 22.6313
lfingers 7.12502
lthumb 6.30944 52.5173
rfemur -81.0145 -12.8629 32.9636
rtibia 100.813
rfoot -17.1137 -0.736822
rtoes 14.9624
lfemur 13.3618 -3.61509 -20.9703
ltibia 15.9192
lfoot 2.0027 -12.9615
ltoes 3.10884
1797
root 6.2104 17.9639 -0.160946 538.584 -98.8479 -178.224
lowerback 17.9288 -1.83036 -2.84756
upperback 6.63866 -3.12316 3.56451
thorax -2.54447 -1.79823 6.02866
lowerneck -14.8708 -1.57989 -8.10343
upperneck 32.649 -3.08273 6.32694
head 13.7598 -1.81733 3.38622
rclavicle -2.42517e-014 3.4191e-014
rhumerus -31.9648 -13.6154 -76.526
rradius 36.3633
rwrist -13.534
rhand -23.7808 12.897
rfingers 7.12502
rthumb 2.68904 -17.0658
lclavicle -2.42517e-014 3.4191e-014
lhumerus -16.5674 -9.9818 85.7971
lradius 50.3862
lwrist 10.0587
lhand -19.8631 23.2695
lfingers 7.12502
lthumb 6.47195 53.1506
rfemur -80.6447 -12.6496 32.9786
rtibia 100.449
rfoot -18.0518 -0.893768
rtoes 16.3042
lfemur 13.7212 -3.81703 -21.1922
ltibia 14.2934
lfoot 3.82416 -12.7158
ltoes -1.82564
1798
root 6.07848 18.0575 -0.152073 540.045 -98.7623 -179.029
lowerback 17.7631 -1.86574 -2.21623
upperback 6.49762 -3.04929 3.54958
thorax -2.65453 -1.74256 5.63182
lowerneck -14.9799 -1.67062 -8.10143
upperneck 32.5085 -3.18912 6.34409
head 13.7337 -1.85113 3.37282
rclavicle -2.0276e-014 -3.18055e-015
rhumerus -31.92 -14.2359 -76.508
rradius 35.7803
rwrist -13.5509
rhand -23.5942 12.7115
rfingers 7.12502
rthumb 2.86923 -17.2489
lclavicle -2.0276e-014 -3.18055e-015
lhumerus -16.9806 -10.0498 86.0581
lradius 49.7289
lwrist 10.6
lhand -19.9035 23.9878
lfingers 7.12502
lthumb 6.43298 53.8701
rfemur -80.3025 -12.4843 33.2304
rtibia 100.13
rfoot -18.6463 -0.525821
rtoes 20.0356
lfemur 14.1377 -4.07185 -21.0474
ltibia 12.426
lfoot 6.45952 -12.1211
ltoes -1.41469
1799
root 5.9442 18.1735 -0.147227 541.279 -98.6854 -179.828
lowerback 17.9324 -1.92048 -1.89744
upperback 6.33759 -3.0541 3.68919
thorax -2.92225 -1.73158 5.61725
lowerneck -14.958 -1.67593 -8.13423
upperneck 32.3248 -3.10423 6.16854
head 13.6389 -1.83394 3.31612
rclavicle 3.97569e-015 -5.56597e-015
rhumerus -31.8097 -14.6801 -76.2952
rradius 35.0745
rwrist -13.1389
rhand -23.2629 12.6217
rfingers 7.12502
rthumb 3.1892 -17.3342
lclavicle 3.97569e-015 -5.56597e-015
lhumerus -17.505 -9.49457 86.49
lradius 48.8531
lwrist 10.7013
lhand -20.1663 24.2852
lfingers 7.12502
lthumb 6.17922 54.1751
rfemur -79.754 -12.3632 33.2756
rtibia 99.8105
rfoot -19.2816 -0.103855
rtoes 23.951
lfemur 14.8776 -4.31287 -20.8867
ltibia 10.2496
lfoot 9.81296 -11.1791
ltoes 0.844399
1800
root 5.80946 18.2946 -0.139911 540.419 -98.6524 -178.53
lowerback 18.0923 -1.99703 -1.79611
upperback 6.2035 -3.12711 3.69631
thorax -3.14622 -1.75605 5.59649
lowerneck -14.9944 -1.66722 -8.03064
upperneck 32.1768 -3.00115 5.88437
head 13.5673 -1.80614 3.19584
rclavicle 1.90833e-014 -6.36111e-015
rhumerus -31.6619 -15.0335 -76.1891
rradius 34.4442
rwrist -13.114
rhand -23.3756 12.9969
rfingers 7.12502
rthumb 3.08041 -16.9606
lclavicle 1.90833e-014 -6.36111e-015
lhumerus -17.9684 -8.39045 86.7541
lradius 47.9131
lwrist 9.2404
lhand -19.1584 24.3599
lfingers 7.12502
lthumb 7.15225 54.219
rfemur -79.1814 -12.2985 33.0077
rtibia 99.3108
rfoot -19.6758 -0.503065
rtoes 22.9051
lfemur 16.055 -4.44462 -21.0479
ltibia 7.11603
lfoot 13.9055 -10.4696
ltoes -0.501905
